<!-- Ghost icons created by justicon - Flaticon
https://www.flaticon.com/free-icon/ghost_2085034 -->

<svg xmlns="http://www.w3.org/2000/svg" version="1.1" xmlns:xlink="http://www.w3.org/1999/xlink"
  xmlns:svgjs="http://svgjs.com/svgjs" width="512" height="512" x="0" y="0" viewBox="0 0 64 64"
  style="enable-background:new 0 0 512 512" xml:space="preserve" class="">
  <g>
    <g data-name="08-ghost">
      <path fill="#161925"
        d="M5 36.46a3.866 3.866 0 0 1-1.26.5 2.026 2.026 0 0 1-1.4-.23l-.1-.05a2.634 2.634 0 0 1-.47-4.1 11.687 11.687 0 0 0 2.06-1.98 50.705 50.705 0 0 0 1.25 5.84z">
      </path>
      <path fill="#252a3e" d="M50 21h4s0 3-2 3-2-3-2-3z"></path>
      <ellipse cx="55.5" cy="16" fill="#252a3e" rx="1.5" ry="3"></ellipse>
      <ellipse cx="48.5" cy="16" fill="#252a3e" rx="1.5" ry="3"></ellipse>
      <path fill="#252a3e"
        d="M13.36 7.11c.81.5.86 2.65.1 4.8s-2.02 3.49-2.82 2.98-.86-2.65-.1-4.8 2.02-3.49 2.82-2.98zM21.36 7.11c.81.5.86 2.65.1 4.8s-2.02 3.49-2.82 2.98-.86-2.65-.1-4.8 2.02-3.49 2.82-2.98z">
      </path>
      <path fill="#333a56"
        d="M54 16c0 1.66.67 3 1.5 3s1.5-1.34 1.5-3-.67-3-1.5-3-1.5 1.34-1.5 3zm-5.5 3c.83 0 1.5-1.34 1.5-3s-.67-3-1.5-3-1.5 1.34-1.5 3 .67 3 1.5 3zm5.5 2h-4s0 3 2 3 2-3 2-3zM51.8 8C57.99 8 63 13.32 63 19.89 63 35.39 52.93 47.94 38.1 48a8.429 8.429 0 0 1-.57-1.76 43.6 43.6 0 0 1-.66-4.23L37 42c6.72 0 6.96-4.81 6.96-10.22 0-3.07-1.02-5.4-1.96-7.78-1.75-4.45-.65-10.72 3.19-13.71A10.724 10.724 0 0 1 51.8 8z">
      </path>
      <path fill="#424b6f"
        d="M19 18h-8s0 4 4 4 4-4 4-4zm-8.36-3.11c.8.51 2.07-.83 2.82-2.98s.71-4.3-.1-4.8-2.07.83-2.82 2.98-.71 4.3.1 4.8zM38.1 48a8.949 8.949 0 0 0 11 4.97A35.781 35.781 0 0 1 60 51h1.11A1.9 1.9 0 0 1 63 52.89v.07a1.91 1.91 0 0 1-1.87 1.89A22.971 22.971 0 0 0 53 57l-11.24 4.82A14.621 14.621 0 0 1 36 63h-2C20.1 63 9.38 52.46 5.08 36.44a50.705 50.705 0 0 1-1.25-5.84A65.631 65.631 0 0 1 3 20C3 9.51 10.61 1 20 1c8.05 0 14.79 6.25 16.55 14.64a20.658 20.658 0 0 1 .29 6.03 114.727 114.727 0 0 0 .03 20.34c.16 1.47.38 2.9.66 4.23A8.429 8.429 0 0 0 38.1 48zM21.46 11.91c.76-2.15.71-4.3-.1-4.8s-2.07.83-2.82 2.98-.71 4.3.1 4.8 2.07-.83 2.82-2.98z">
      </path>
      <path fill="#515b87"
        d="M24.886 27.223a.994.994 0 0 1 1.181.857 7.676 7.676 0 0 0 2.163 4.5 2.634 2.634 0 0 1-.47 4.1l-.1.05a2.026 2.026 0 0 1-1.4.23c-3.415-.713-4.708-5.807-5.107-7.981a1 1 0 0 1 .786-1.167z">
      </path>
      <path fill="#252a3e" d="M11 18s0 4 4 4 4-4 4-4z"></path>
      <path fill="#161925"
        d="M54 21h-4a5.455 5.455 0 0 0 .117 1h3.766A5.455 5.455 0 0 0 54 21zM55.5 14c.744 0 1.356 1.08 1.475 2.5A5.81 5.81 0 0 0 57 16c0-1.66-.67-3-1.5-3S54 14.34 54 16c0 .171.011.337.025.5.119-1.42.731-2.5 1.475-2.5zM48.5 13c-.83 0-1.5 1.34-1.5 3 0 .171.011.337.025.5.119-1.42.731-2.5 1.475-2.5s1.356 1.08 1.475 2.5A5.81 5.81 0 0 0 50 16c0-1.66-.67-3-1.5-3z">
      </path>
      <path fill="#161925"
        d="M13.36 7.11c-.517-.33-1.229.121-1.872 1.057a.821.821 0 0 1 .872-.057c.81.5.86 2.65.1 4.8a8.2 8.2 0 0 1-.948 1.923 5.5 5.5 0 0 0 1.948-2.923c.76-2.15.71-4.3-.1-4.8zM21.36 7.11c-.517-.33-1.229.121-1.872 1.057a.821.821 0 0 1 .872-.057c.81.5.86 2.65.1 4.8a8.2 8.2 0 0 1-.948 1.923 5.5 5.5 0 0 0 1.948-2.923c.76-2.15.71-4.3-.1-4.8z">
      </path>
      <path fill="#333a56"
        d="M39 62c-13.9 0-24.62-10.54-28.92-26.56a50.705 50.705 0 0 1-1.25-5.84A65.631 65.631 0 0 1 8 19c0-8.346 4.824-15.423 11.523-17.973C10.356 1.312 3 9.69 3 20a65.631 65.631 0 0 0 .83 10.6 50.705 50.705 0 0 0 1.25 5.84C9.38 52.46 20.1 63 34 63h2a14.608 14.608 0 0 0 5.316-1.016c-.106 0-.21.016-.316.016z">
      </path>
      <path fill="#515b87"
        d="M31.55 16.64a20.658 20.658 0 0 1 .29 6.03 114.727 114.727 0 0 0 .03 20.34c.16 1.47.38 2.9.66 4.23A8.429 8.429 0 0 0 33.1 49a8.949 8.949 0 0 0 11 4.97c.578-.191 1.2-.38 1.844-.564A9 9 0 0 1 38.1 48a8.429 8.429 0 0 1-.57-1.76 43.6 43.6 0 0 1-.66-4.23 114.727 114.727 0 0 1-.03-20.34 20.658 20.658 0 0 0-.29-6.03C34.79 7.25 28.05 1 20 1a15.338 15.338 0 0 0-5.477 1.027c.16-.005.316-.027.477-.027 8.05 0 14.79 6.25 16.55 14.64z">
      </path>
      <path fill="#616ea1"
        d="M28.23 32.58a7.676 7.676 0 0 1-2.163-4.5.994.994 0 0 0-1.181-.857l-1.165.233a.989.989 0 0 1 .346.624 7.676 7.676 0 0 0 2.163 4.5 2.634 2.634 0 0 1-.47 4.1l-.1.05c-.019.01-.039.016-.058.026a3.869 3.869 0 0 0 .658.2 2.026 2.026 0 0 0 1.4-.23l.1-.05a2.634 2.634 0 0 0 .47-4.096z">
      </path>
      <path fill="#252a3e"
        d="M26.26 36.96c-3.416-.713-4.708-5.807-5.107-7.981a.981.981 0 0 1 0-.21l-.217.043a1 1 0 0 0-.786 1.167c.4 2.174 1.691 7.268 5.107 7.981a2.026 2.026 0 0 0 1.4-.23l.1-.05a2.319 2.319 0 0 0 .918-.959l-.018.009a2.026 2.026 0 0 1-1.397.23z">
      </path>
      <path fill="#515b87"
        d="M63 19.89C63 13.32 57.99 8 51.8 8a10.648 10.648 0 0 0-5.146 1.326A9.008 9.008 0 0 1 49.042 9a11.249 11.249 0 0 1 11.291 11.136A25.565 25.565 0 0 1 59 29c-2.6 6.935-8.207 14.621-14.214 15.894a2 2 0 0 0-1.522 2.549C55.218 44.856 63 33.514 63 19.89z">
      </path>
      <path fill="#161925"
        d="M46 37c.856-4.28-1.945-8.55-2.772-9.694a14.628 14.628 0 0 1 .732 4.474C43.96 37.19 43.72 42 37 42l-.13.01c.111 1.024.263 2.014.432 2.978C42.118 44.867 45.021 41.9 46 37z">
      </path>
      <path fill="#161925" d="M19 18h-8a4.878 4.878 0 0 0 .141 1H18a4.9 4.9 0 0 1-.731 2.4A4.363 4.363 0 0 0 19 18z">
      </path>
      <path fill="#161925" d="M39 4h2v2h-2z"></path>
      <g>
        <path d="M39 2h2v2h-2zM39 6h2v2h-2zM41 4h2v2h-2zM37 4h2v2h-2z" fill="#424b6f">
        </path>
      </g>
      <path fill="#161925" d="M6 54h2v2H6z"></path>
      <path fill="#424b6f" d="M6 52h2v2H6zM6 56h2v2H6zM8 54h2v2H8zM4 54h2v2H4z"></path>
      <path fill="#161925" d="M59 45h2v2h-2z"></path>
      <path fill="#424b6f" d="M59 43h2v2h-2zM59 47h2v2h-2zM61 45h2v2h-2zM57 45h2v2h-2z"></path>
      <path fill="#f6fafd"
        d="M54 20.5h-4a.5.5 0 0 0-.5.5c0 1.21.522 3.5 2.5 3.5s2.5-2.29 2.5-3.5a.5.5 0 0 0-.5-.5zM52 24c-2 0-2-3-2-3h4s0 3-2 3z">
      </path>
      <path fill="#f6fafd"
        d="M55.5 12.5c-1.14 0-2 1.505-2 3.5s.86 3.5 2 3.5 2-1.5 2-3.5-.86-3.5-2-3.5zm0 6.5c-.83 0-1.5-1.34-1.5-3s.67-3 1.5-3 1.5 1.34 1.5 3-.67 3-1.5 3zM48.5 12.5c-1.14 0-2 1.505-2 3.5s.86 3.5 2 3.5 2-1.5 2-3.5-.86-3.5-2-3.5zm0 6.5c-.83 0-1.5-1.34-1.5-3s.67-3 1.5-3 1.5 1.34 1.5 3-.67 3-1.5 3z">
      </path>
      <path fill="#f6fafd" d="m12.801 7.935-.006-.004.01.008z"></path>
      <path fill="#f6fafd"
        d="M13.892 6.263a1.727 1.727 0 0 0-1.52-.154C11.3 6.48 10.264 7.845 9.6 9.756c-.792 2.24-.967 5.068.506 5.977a1.668 1.668 0 0 0 .904.267 1.874 1.874 0 0 0 .618-.107c1.07-.371 2.108-1.736 2.775-3.647.79-2.239.967-5.062-.511-5.983zm-.432 5.647c-.75 2.15-2.02 3.49-2.82 2.98s-.86-2.65-.1-4.8 2.02-3.49 2.82-2.98.86 2.65.1 4.8z">
      </path>
      <path fill="#f6fafd" d="m20.801 7.935-.006-.004.01.008z"></path>
      <path fill="#f6fafd"
        d="M21.892 6.263a1.727 1.727 0 0 0-1.52-.154C19.3 6.48 18.264 7.845 17.6 9.756c-.792 2.24-.967 5.068.506 5.977a1.668 1.668 0 0 0 .904.267 1.874 1.874 0 0 0 .618-.107c1.07-.371 2.108-1.736 2.775-3.647.79-2.239.967-5.062-.511-5.983zm-.432 5.647c-.75 2.15-2.02 3.49-2.82 2.98s-.86-2.65-.1-4.8 2.02-3.49 2.82-2.98.86 2.65.1 4.8zM19 17.5h-8a.5.5 0 0 0-.5.5 4.338 4.338 0 0 0 4.5 4.5 4.338 4.338 0 0 0 4.5-4.5.5.5 0 0 0-.5-.5zM15 22c-4 0-4-4-4-4h8s0 4-4 4z">
      </path>
      <ellipse cx="29.684" cy="7.695" fill="#f6fafd" rx="1.642" ry="2.286" transform="rotate(-45 29.7 7.699)">
      </ellipse>
      <ellipse cx="31.682" cy="10.708" fill="#f6fafd" rx=".825" ry="1.148" transform="rotate(-45 31.697 10.713)">
      </ellipse>
      <ellipse cx="60.682" cy="15.708" fill="#f6fafd" rx=".825" ry="1.148" transform="rotate(-45 60.712 15.716)">
      </ellipse>
      <ellipse cx="59.427" cy="13.208" fill="#f6fafd" rx=".413" ry=".574" transform="rotate(-45 59.456 13.216)">
      </ellipse>
    </g>
  </g>
</svg>
